<?xml version="1.0" encoding="UTF-8" standalone="no"?>
<!DOCTYPE svg PUBLIC "-//W3C//DTD SVG 1.1//EN"
 "http://www.w3.org/Graphics/SVG/1.1/DTD/svg11.dtd">
<!-- Generated by graphviz version 2.40.1 (20161225.0304)
 -->
<!-- Title: dependencies Pages: 1 -->
<svg width="645pt" height="284pt"
 viewBox="0.00 0.00 645.00 284.00" xmlns="http://www.w3.org/2000/svg" xmlns:xlink="http://www.w3.org/1999/xlink">
<g id="graph0" class="graph" transform="scale(1 1) rotate(0) translate(4 280)">
<title>dependencies</title>
<polygon fill="#ffffff" stroke="transparent" points="-4,4 -4,-280 641,-280 641,4 -4,4"/>
<text text-anchor="start" x="297.5091" y="-42.4" font-family="sans-serif" font-weight="bold" font-size="14.00" fill="#000000">Legend</text>
<polygon fill="#ffffb3" stroke="transparent" points="84.5,-10 84.5,-30 104.5,-30 104.5,-10 84.5,-10"/>
<text text-anchor="start" x="108.129" y="-15.4" font-family="sans-serif" font-size="14.00" fill="#000000"> &#160;Declarations</text>
<polygon fill="#8dd3c7" stroke="transparent" points="197.5,-10 197.5,-30 217.5,-30 217.5,-10 197.5,-10"/>
<text text-anchor="start" x="221.2251" y="-15.4" font-family="sans-serif" font-size="14.00" fill="#000000"> &#160;Module</text>
<polygon fill="#80b1d3" stroke="transparent" points="283.5,-10 283.5,-30 303.5,-30 303.5,-10 283.5,-10"/>
<text text-anchor="start" x="307.2812" y="-15.4" font-family="sans-serif" font-size="14.00" fill="#000000"> &#160;Bootstrap</text>
<polygon fill="#fdb462" stroke="transparent" points="380.5,-10 380.5,-30 400.5,-30 400.5,-10 380.5,-10"/>
<text text-anchor="start" x="404.1732" y="-15.4" font-family="sans-serif" font-size="14.00" fill="#000000"> &#160;Providers</text>
<polygon fill="#fb8072" stroke="transparent" points="476.5,-10 476.5,-30 496.5,-30 496.5,-10 476.5,-10"/>
<text text-anchor="start" x="500.2258" y="-15.4" font-family="sans-serif" font-size="14.00" fill="#000000"> &#160;Exports</text>
<g id="clust1" class="cluster">
<title>cluster_AppModule</title>
<polygon fill="none" stroke="#000000" stroke-dasharray="1,5" points="8,-70 8,-268 629,-268 629,-70 8,-70"/>
</g>
<g id="clust2" class="cluster">
<title>cluster_AppModule_declarations</title>
<polygon fill="none" stroke="#000000" points="359,-78 359,-130 621,-130 621,-78 359,-78"/>
</g>
<g id="clust5" class="cluster">
<title>cluster_AppModule_imports</title>
<polygon fill="none" stroke="#000000" points="16,-78 16,-130 351,-130 351,-78 16,-78"/>
</g>
<g id="clust7" class="cluster">
<title>cluster_AppModule_bootstrap</title>
<polygon fill="none" stroke="#000000" points="235,-208 235,-260 359,-260 359,-208 235,-208"/>
</g>
<!-- ...fromPages.pages -->
<g id="node1" class="node">
<title>...fromPages.pages</title>
<polygon fill="#ffffb3" stroke="#000000" points="612.7423,-122 491.2577,-122 491.2577,-86 612.7423,-86 612.7423,-122"/>
<text text-anchor="middle" x="552" y="-99.8" font-family="Times,serif" font-size="14.00" fill="#000000">...fromPages.pages</text>
</g>
<!-- AppModule -->
<g id="node3" class="node">
<title>AppModule</title>
<polygon fill="#8dd3c7" stroke="#000000" points="338.6571,-187 335.6571,-191 314.6571,-191 311.6571,-187 255.3429,-187 255.3429,-151 338.6571,-151 338.6571,-187"/>
<text text-anchor="middle" x="297" y="-164.8" font-family="Times,serif" font-size="14.00" fill="#000000">AppModule</text>
</g>
<!-- ...fromPages.pages&#45;&gt;AppModule -->
<g id="edge1" class="edge">
<title>...fromPages.pages&#45;&gt;AppModule</title>
<path fill="none" stroke="#000000" d="M552,-122.2843C552,-143.3211 552,-175 552,-175 552,-175 348.8225,-175 348.8225,-175"/>
<polygon fill="#000000" stroke="#000000" points="348.8226,-171.5001 338.8225,-175 348.8225,-178.5001 348.8226,-171.5001"/>
</g>
<!-- AppComponent -->
<g id="node2" class="node">
<title>AppComponent</title>
<polygon fill="#ffffb3" stroke="#000000" points="472.9399,-122 367.0601,-122 367.0601,-86 472.9399,-86 472.9399,-122"/>
<text text-anchor="middle" x="420" y="-99.8" font-family="Times,serif" font-size="14.00" fill="#000000">AppComponent</text>
</g>
<!-- AppComponent&#45;&gt;AppModule -->
<g id="edge2" class="edge">
<title>AppComponent&#45;&gt;AppModule</title>
<path fill="none" stroke="#000000" d="M420,-122.0225C420,-139.3734 420,-163 420,-163 420,-163 348.9856,-163 348.9856,-163"/>
<polygon fill="#000000" stroke="#000000" points="348.9856,-159.5001 338.9856,-163 348.9856,-166.5001 348.9856,-159.5001"/>
</g>
<!-- AppComponent  -->
<g id="node7" class="node">
<title>AppComponent </title>
<polygon fill="#80b1d3" stroke="#000000" points="351.439,-252 242.561,-252 242.561,-216 351.439,-216 351.439,-252"/>
<text text-anchor="middle" x="297" y="-229.8" font-family="Times,serif" font-size="14.00" fill="#000000">AppComponent </text>
</g>
<!-- AppModule&#45;&gt;AppComponent  -->
<g id="edge6" class="edge">
<title>AppModule&#45;&gt;AppComponent </title>
<path fill="none" stroke="#000000" stroke-dasharray="1,5" d="M297,-187.1061C297,-187.1061 297,-205.991 297,-205.991"/>
<polygon fill="#000000" stroke="#000000" points="293.5001,-205.9909 297,-215.991 300.5001,-205.991 293.5001,-205.9909"/>
</g>
<!-- !environment -->
<g id="node4" class="node">
<title>!environment</title>
<polygon fill="#8dd3c7" stroke="#000000" points="342.9232,-122 339.9232,-126 318.9232,-126 315.9232,-122 251.0768,-122 251.0768,-86 342.9232,-86 342.9232,-122"/>
<text text-anchor="middle" x="297" y="-99.8" font-family="Times,serif" font-size="14.00" fill="#000000">!environment</text>
</g>
<!-- !environment&#45;&gt;AppModule -->
<g id="edge3" class="edge">
<title>!environment&#45;&gt;AppModule</title>
<path fill="none" stroke="#000000" d="M297,-122.1061C297,-122.1061 297,-140.991 297,-140.991"/>
<polygon fill="#000000" stroke="#000000" points="293.5001,-140.9909 297,-150.991 300.5001,-140.991 293.5001,-140.9909"/>
</g>
<!-- CoreModule -->
<g id="node5" class="node">
<title>CoreModule</title>
<polygon fill="#8dd3c7" stroke="#000000" points="233.2619,-122 230.2619,-126 209.2619,-126 206.2619,-122 146.7381,-122 146.7381,-86 233.2619,-86 233.2619,-122"/>
<text text-anchor="middle" x="190" y="-99.8" font-family="Times,serif" font-size="14.00" fill="#000000">CoreModule</text>
</g>
<!-- CoreModule&#45;&gt;AppModule -->
<g id="edge4" class="edge">
<title>CoreModule&#45;&gt;AppModule</title>
<path fill="none" stroke="#000000" d="M190,-122.0225C190,-139.3734 190,-163 190,-163 190,-163 245.3246,-163 245.3246,-163"/>
<polygon fill="#000000" stroke="#000000" points="245.3247,-166.5001 255.3246,-163 245.3246,-159.5001 245.3247,-166.5001"/>
</g>
<!-- RoutingModule -->
<g id="node6" class="node">
<title>RoutingModule</title>
<polygon fill="#8dd3c7" stroke="#000000" points="128.1681,-122 125.1681,-126 104.1681,-126 101.1681,-122 23.8319,-122 23.8319,-86 128.1681,-86 128.1681,-122"/>
<text text-anchor="middle" x="76" y="-99.8" font-family="Times,serif" font-size="14.00" fill="#000000">RoutingModule</text>
</g>
<!-- RoutingModule&#45;&gt;AppModule -->
<g id="edge5" class="edge">
<title>RoutingModule&#45;&gt;AppModule</title>
<path fill="none" stroke="#000000" d="M76,-122.2843C76,-143.3211 76,-175 76,-175 76,-175 245.1718,-175 245.1718,-175"/>
<polygon fill="#000000" stroke="#000000" points="245.1718,-178.5001 255.1718,-175 245.1717,-171.5001 245.1718,-178.5001"/>
</g>
</g>
</svg>
